<?xml version="1.0" encoding="utf-8"?>
<!-- Generator: Adobe Illustrator 24.2.3, SVG Export Plug-In . SVG Version: 6.00 Build 0)  -->
<svg version="1.1" id="圖層_1" xmlns="http://www.w3.org/2000/svg" xmlns:xlink="http://www.w3.org/1999/xlink" x="0px" y="0px"
	 viewBox="0 0 80 18" style="enable-background:new 0 0 80 18;" xml:space="preserve">
<style type="text/css">
	.st0{fill:#554C48;}
	.st1{fill:url(#SVGID_1_);}
	.st2{fill:url(#SVGID_2_);}
</style>
<g>
	<g>
		<path class="st0" d="M29.75,0.62c-0.68,0-0.93,0.55-0.93,1.22v14.35c0,0.68,0.24,1.18,0.93,1.18c0.68,0,0.92-0.51,0.92-1.18V1.85
			C30.67,1.17,30.43,0.62,29.75,0.62z"/>
		<path class="st0" d="M25.03,6.99l-3.13,3.57c-0.41,0.47-0.64,1.13-0.17,1.54c0.22,0.19,0.37,0.19,0.63,0.19
			c0.32,0,0.64-0.13,0.86-0.39l3.13-3.57c0.41-0.47,0.55-1.09,0.07-1.5C25.96,6.43,25.44,6.52,25.03,6.99z"/>
		<path class="st0" d="M34.58,6.77c-0.42-0.47-1.03-0.66-1.5-0.24c-0.47,0.41-0.38,0.99,0.04,1.46l3.48,3.89
			c0.23,0.25,0.54,0.38,0.85,0.38c0.27,0,0.42,0,0.64-0.2c0.47-0.41,0.39-0.93-0.03-1.4L34.58,6.77z"/>
	</g>
	<g>
		<path class="st0" d="M45.77,6.75c0.51,0,0.92-0.07,0.92-0.57c0-0.51-0.41-0.92-0.92-0.92h-0.49V1.85c0-0.51-0.41-0.92-0.92-0.92
			c-0.51,0-0.66,0.72-0.66,1.22v3.07l-1.77,0.03c-0.51,0-0.92,0.41-0.92,0.92c0,0.51,0.41,0.58,0.92,0.58l1.77-0.02v2.36
			c-0.02,0.08-0.13,0.27-0.18,0.34l-2.35,3.05c-0.31,0.4-0.23,0.98,0.17,1.29c0.17,0.13,0.09,0.05,0.29,0.05
			c0.28,0,0.55-0.12,0.74-0.36l1.32-1.68l-0.02,4.91c0,0.51,0.31,0.92,0.82,0.92c0.51,0,0.8-0.41,0.8-0.92l-0.03-5.15
			c0.15,0.1,0.45,0.35,0.62,0.35c0.26,0,0.56-0.04,0.7-0.27c0.27-0.47,0.19-0.81-0.2-1.14l-1.1-0.95V6.75H45.77z"/>
		<path class="st0" d="M59.37,5.34l-0.03-3.49c0-0.51-0.11-0.92-0.62-0.92c-0.51,0-0.92,0.41-0.92,0.92l-0.01,3.41h-1.86
			C55.41,5.26,55,5.67,55,6.18s0.42,0.67,0.93,0.67l1.97,0.04v4.51l-1.17-0.69c-0.39-0.33-1.11-0.35-1.45,0.03
			c-0.34,0.38-0.13,0.69,0.25,1.02l1.8,0.91c0.04,0.04,0.49,0.34,0.53,0.37l0.03,3.6c0,0.51,0.41,0.92,0.92,0.92
			c0.51,0,0.51-0.37,0.51-0.88V6.85c0.49-0.03,0.88-0.42,0.88-0.91S59.86,5.36,59.37,5.34z"/>
		<path class="st0" d="M54.08,2.27h-2.41V1.31c0-0.51-0.1-0.92-0.61-0.92c-0.51,0-0.92,0.41-0.92,0.92v0.96h-2.09
			c-0.51,0-0.92,0.41-0.92,0.92c0,0.51,0.41,0.62,0.92,0.62l2.16,0.06v1.08c0,0.04-0.38,0.02-0.37,0.06h-1.79
			c-0.51,0-0.84,0.07-0.84,0.57c0,0.51,0.41,0.92,0.92,0.92h5.49c0.51,0,0.92-0.41,0.92-0.92c0-0.51-0.5-0.57-1.01-0.57h-1.87
			c0.01-0.04,0.01-0.08,0.01-0.13V3.81h2.41c0.51,0,0.92-0.12,0.92-0.62C55,2.68,54.59,2.27,54.08,2.27z"/>
		<path class="st0" d="M53.99,13.06c-0.49-0.13-1,0.16-1.13,0.65l-0.46,1.97h-2.07c0-0.01-0.15-0.27-0.15-0.28l-0.7-1.76
			c-0.19-0.47-0.28-0.7-0.76-0.52c-0.48,0.19-0.71,0.72-0.52,1.19l0.45,1.36l-0.66,0.03c-0.51,0-0.92,0.41-0.92,0.92
			s0.41,0.69,0.92,0.69h4.86c0.42,0,0.78-0.28,0.89-0.68l0.66-2.43C54.54,13.69,54.48,13.19,53.99,13.06z"/>
		<path class="st0" d="M48.14,11.96h5.32c0.51,0,0.92-0.41,0.92-0.92V9.09c0-0.51-0.41-0.92-0.92-0.92h-5.32
			c-0.51,0-0.92,0.41-0.92,0.92v1.95C47.21,11.55,47.63,11.96,48.14,11.96z M49.06,9.43h3.47v1.32h-3.47V9.43z"/>
	</g>
	<g>
		<path class="st0" d="M69.73,4.15c-0.51,0-0.92-0.02-0.92,0.49c0,0.51,0.41,0.92,0.92,0.92h1.66v1.45c0,0.07,0.01,0.14,0.02,0.2
			h-1.53c-0.51,0-0.92-0.02-0.92,0.48c0,0.51,0.41,0.92,0.92,0.92h8.89c0.51,0,0.93-0.41,0.93-0.92c0-0.51-0.41-0.48-0.93-0.48
			h-1.45c0.01-0.06,0.02-0.13,0.02-0.2V5.55h1.18c0.51,0,0.92-0.41,0.92-0.92c0-0.51-0.41-0.49-0.92-0.49h-1.18V2.8h1.43
			c0.51,0,0.93,0.02,0.93-0.48c0-0.51-0.41-0.92-0.93-0.92h-1.43V1.38c0-0.51-0.05-0.92-0.56-0.92s-0.92,0.41-0.92,0.92V1.4h-2.94
			V1.38c0-0.51-0.17-0.92-0.68-0.92c-0.51,0-0.9,0.45-0.9,0.96v0.03L69.88,1.4c-0.51,0-0.92,0.41-0.92,0.92
			c0,0.51,0.41,0.48,0.92,0.48h1.47v1.35H69.73z M75.92,7.21h-3.03c0.01-0.06,0.02-0.13,0.02-0.2V5.55h2.98v1.45
			C75.9,7.07,75.9,7.14,75.92,7.21z M72.92,2.8h2.94v1.35h-2.94V2.8z"/>
		<path class="st0" d="M79.08,14.27H79v-3.19c0-0.51-0.41-0.92-0.92-0.92h-7.5c-0.51,0-0.92,0.41-0.92,0.92v3.19
			c-0.48,0.04-0.85,0.43-0.85,0.91c0,0.48,0.38,0.32,0.85,0.36v1.08c0,0.51,0.02,0.92,0.53,0.92c0.51,0,0.92-0.41,0.92-0.92v-1.07
			h6.43v1.07c0,0.51,0.41,0.92,0.92,0.92S79,17.12,79,16.61v-1.07h0.07c0.51,0,0.92,0.15,0.92-0.36
			C80,14.68,79.59,14.27,79.08,14.27z M71.11,11.41h2.55v2.86h-2.55V11.41z M75.11,14.27v-2.86h2.44v2.86H75.11z"/>
		<path class="st0" d="M66.68,14.58l0.56-0.01c0.53-0.05,0.65-0.41,0.65-0.92V1.89c0-0.51-0.41-0.92-0.92-0.92h-3.32
			c-0.51,0-0.92,0.41-0.92,0.92v11.76c0,0.51,0.33,0.95,0.85,0.95l0.22-0.01l-1.12,1.52c-0.3,0.41-0.21,0.98,0.2,1.28
			c0.16,0.12,0.12,0.15,0.31,0.15c0.28,0,0.57-0.13,0.75-0.37l1.47-1.98l1.27,1.93c0.18,0.27,0.47,0.41,0.77,0.41
			c0.17,0,0.34-0.07,0.49-0.18c0.45-0.32,0.37-0.74,0.08-1.23L66.68,14.58z M66.31,8.43h-2.12V5.76h2.12V8.43z M64.23,9.6h2.12
			l-0.03,3.13h-2.12L64.23,9.6z M66.31,2.8v1.76h-2.12V2.8H66.31z"/>
	</g>
	<g>
		<linearGradient id="SVGID_1_" gradientUnits="userSpaceOnUse" x1="2.728484e-12" y1="11.636" x2="13.6379" y2="11.636">
			<stop  offset="0" style="stop-color:#F7C352"/>
			<stop  offset="1" style="stop-color:#EF8045"/>
		</linearGradient>
		<path class="st1" d="M13.09,6c-0.02-0.4-0.36-0.72-0.77-0.72h-5.8c-0.42,0-0.78,0.12-0.78,0.54c0,0.42,0.34,0.56,0.77,0.56
			l3.35-0.01c-0.04,0.21-0.06,0.59-0.2,0.79C9.63,7.21,9.59,7.27,9.54,7.33C9.49,7.38,9.44,7.44,9.38,7.5
			C9.37,7.5,9.37,7.51,9.36,7.51c-0.05,0.05-0.11,0.1-0.17,0.15c-0.03,0.03-0.06,0.05-0.1,0.08C9.05,7.77,9.01,7.8,8.97,7.83
			C8.91,7.88,8.84,7.92,8.78,7.97C8.35,8.25,7.93,8.63,7.4,8.84c-1.33,0.65-4.8,2.48-3.16,5.59c0.31,0.54,0.62,0.38,0.7,0.03
			c0.24-1.27,1.54-3.13,2.38-3.5c0.27-0.14,0.27,0.05,0.2,0.1c-0.76,0.5-1.81,1.66-2.37,3.81c-0.14,0.53-0.21,1.44-0.22,1.99
			l-3.75-0.01l0.5-10.41c0.02-0.42,0.07-1.13-0.35-1.15C0.92,5.25,0.56,5.58,0.54,6L0,17.2c-0.01,0.21,0.07,0.41,0.21,0.56
			S0.56,18,0.77,18h12.11c0.21,0,0.41-0.09,0.55-0.24c0.14-0.15,0.22-0.35,0.21-0.56L13.09,6z M5.62,16.85
			c0.07-0.47,0.26-1.33,0.74-1.47c0.1-0.02,0.2-0.04,0.3-0.06c3.13-0.82,3.39-5.72,3.46-7.39c0-0.04,0-0.08,0-0.12
			c0-0.03,0.01-0.05,0.01-0.08c0.02-0.42-0.02-1.17-0.04-1.37h1.97l0.49,10.49H5.62z"/>
		<linearGradient id="SVGID_2_" gradientUnits="userSpaceOnUse" x1="3.2013" y1="3.6832" x2="11.1209" y2="3.6832">
			<stop  offset="0" style="stop-color:#F7C352"/>
			<stop  offset="1" style="stop-color:#EF8045"/>
		</linearGradient>
		<path class="st2" d="M3.82,7.37c0.42,0,0.59-0.34,0.59-0.76V3.4c0-1.75,2.18-2.35,2.74-2.35c0.57,0,2.68,0.59,2.68,2.34
			c0,0.42,0.14,0.73,0.57,0.73c0.42,0,0.61-0.01,0.7-0.72C11.35,1.38,9.51,0,7.15,0C4.79,0,3.2,1.37,3.2,3.4v3.2
			C3.2,7.03,3.4,7.37,3.82,7.37z"/>
	</g>
</g>
</svg>
